<svg data-v-423bf9ae="" xmlns="http://www.w3.org/2000/svg" viewBox="0 0 370.5696870978646 60" class="font"><!----><!----><defs data-v-423bf9ae=""><linearGradient data-v-423bf9ae="" gradientTransform="rotate(25)" id="f57209b3-9c88-4138-911b-b633812b5b47" x1="0%" y1="0%" x2="100%" y2="0%"><stop data-v-423bf9ae="" offset="0%" style="stop-color: rgb(65, 226, 150); stop-opacity: 1;"></stop><stop data-v-423bf9ae="" offset="100%" style="stop-color: rgb(0, 196, 238); stop-opacity: 1;"></stop></linearGradient></defs><g data-v-423bf9ae="" id="3fd5d759-e026-41d6-b111-784d445bbca1" fill="url(#f57209b3-9c88-4138-911b-b633812b5b47)" transform="matrix(5.258545206169178,0,0,5.258545206169178,-0.15776287406112033,-15.460123683870918)"><path d="M0.03 4.30L0.03 4.30L0.03 3.78L3.22 3.78L3.35 4.16L6.48 11.94L6.48 11.94Q8.19 8.23 9.66 4.16L9.66 4.16L9.79 3.78L12.98 3.78L12.98 4.30L12.98 4.30Q12.59 4.31 12.38 4.33L12.38 4.33L12.38 4.33Q12.18 4.35 11.93 4.40L11.93 4.40L11.93 4.40Q11.68 4.45 11.57 4.55L11.57 4.55L11.57 4.55Q11.47 4.65 11.47 4.80L11.47 4.80L11.47 4.80Q11.47 4.84 11.73 12.49L11.73 12.49L11.75 12.88L11.75 12.88Q11.79 13.31 12.01 13.43L12.01 13.43L12.01 13.43Q12.22 13.55 12.88 13.59L12.88 13.59L12.88 14.11L9.00 14.11L9.00 13.59L9.00 13.59Q9.42 13.57 9.65 13.52L9.65 13.52L9.65 13.52Q9.88 13.48 10.07 13.34L10.07 13.34L10.07 13.34Q10.26 13.20 10.26 12.95L10.26 12.95L10.26 12.95Q10.22 10.25 9.95 5.75L9.95 5.75L9.95 5.75Q8.01 10.02 6.44 14.11L6.44 14.11L5.89 14.11L2.31 5.70L2.31 5.70Q2.10 9.31 2.10 12.95L2.10 12.95L2.10 12.95Q2.10 13.45 3.35 13.57L3.35 13.57L3.35 14.11L0.04 14.11L0.04 13.61L0.04 13.61Q0.67 13.54 0.91 13.24L0.91 13.24L0.91 13.24Q1.15 12.94 1.20 12.26L1.20 12.26L1.20 12.26Q1.34 10.11 1.43 8.24L1.43 8.24L1.43 8.24Q1.51 6.37 1.53 5.57L1.53 5.57L1.54 4.79L1.54 4.79Q1.54 4.52 1.17 4.43L1.17 4.43L1.17 4.43Q0.80 4.34 0.03 4.30ZM13.76 10.47L13.76 10.47L13.76 10.47Q13.76 9.24 14.34 8.30L14.34 8.30L14.34 8.30Q14.71 7.71 15.65 7.23L15.65 7.23L15.65 7.23Q16.59 6.75 17.21 6.75L17.21 6.75L17.21 6.75Q18.45 6.75 19.33 7.55L19.33 7.55L19.33 7.55Q20.22 8.34 20.22 10.00L20.22 10.00L20.22 10.00Q20.22 11.72 19.60 12.66L19.60 12.66L19.60 12.66Q18.77 13.76 17.99 14.11L17.99 14.11L17.99 14.11Q17.46 14.35 16.72 14.35L16.72 14.35L16.72 14.35Q16.31 14.35 15.95 14.27L15.95 14.27L15.95 14.27Q15.58 14.20 15.17 13.94L15.17 13.94L15.17 13.94Q14.76 13.69 14.46 13.29L14.46 13.29L14.46 13.29Q14.15 12.88 13.96 12.16L13.96 12.16L13.96 12.16Q13.76 11.44 13.76 10.47ZM15.09 10.36L15.09 10.36L15.09 10.36Q15.09 12.04 15.67 12.70L15.67 12.70L15.67 12.70Q16.25 13.36 17.36 13.36L17.36 13.36L17.36 13.36Q17.78 13.36 17.98 13.29L17.98 13.29L17.98 13.29Q18.94 12.91 18.94 10.37L18.94 10.37L18.94 10.37Q18.94 9.18 18.63 8.63L18.63 8.63L18.63 8.63Q18.31 8.08 17.54 7.84L17.54 7.84L17.54 7.84Q17.15 7.74 16.79 7.74L16.79 7.74L16.79 7.74Q16.51 7.74 16.36 7.76L16.36 7.76L16.36 7.76Q16.21 7.77 15.97 7.84L15.97 7.84L15.97 7.84Q15.74 7.91 15.61 8.07L15.61 8.07L15.61 8.07Q15.48 8.23 15.34 8.51L15.34 8.51L15.34 8.51Q15.20 8.79 15.15 9.26L15.15 9.26L15.15 9.26Q15.09 9.73 15.09 10.36ZM24.85 14.11L20.93 14.11L20.93 13.64L20.93 13.64Q21.27 13.59 21.38 13.59L21.38 13.59L21.38 13.59Q21.49 13.58 21.67 13.50L21.67 13.50L21.67 13.50Q21.84 13.43 21.87 13.36L21.87 13.36L21.87 13.36Q21.90 13.30 21.95 13.09L21.95 13.09L21.95 13.09Q22.01 12.88 22.01 12.67L22.01 12.67L22.01 12.67Q22.01 12.46 22.01 12.03L22.01 12.03L22.01 11.56L22.01 11.56Q22.01 8.75 21.91 8.26L21.91 8.26L21.91 8.26Q21.81 7.77 21.24 7.73L21.24 7.73L21.24 7.73Q21.15 7.71 21.10 7.71L21.10 7.71L21.07 7.18L21.07 7.18Q21.63 7.13 22.22 6.92L22.22 6.92L22.22 6.92Q22.81 6.71 22.96 6.71L22.96 6.71L22.96 6.71Q23.14 6.71 23.21 6.87L23.21 6.87L23.21 6.87Q23.28 7.03 23.28 7.45L23.28 7.45L23.30 7.98L23.30 7.98Q24.53 6.79 25.24 6.79L25.24 6.79L25.24 6.79Q25.76 6.79 25.96 6.92L25.96 6.92L25.96 6.92Q26.15 7.04 26.15 7.38L26.15 7.38L26.15 7.38Q26.15 7.49 25.93 8.89L25.93 8.89L25.42 8.89L25.42 8.89Q25.35 7.84 24.71 7.84L24.71 7.84L24.71 7.84Q24.35 7.84 23.82 8.17L23.82 8.17L23.82 8.17Q23.30 8.50 23.30 9.04L23.30 9.04L23.30 9.04Q23.30 9.44 23.29 11.01L23.29 11.01L23.29 11.01Q23.28 12.59 23.28 12.84L23.28 12.84L23.28 12.84Q23.28 13.27 23.53 13.40L23.53 13.40L23.53 13.40Q23.79 13.54 24.71 13.66L24.71 13.66L24.71 13.66Q24.81 13.68 24.85 13.68L24.85 13.68L24.85 14.11ZM26.57 10.72L26.57 10.72L26.57 10.72Q26.57 9.95 26.66 9.38L26.66 9.38L26.66 9.38Q26.74 8.81 26.84 8.49L26.84 8.49L26.84 8.49Q26.94 8.18 27.14 7.92L27.14 7.92L27.14 7.92Q27.34 7.67 27.45 7.59L27.45 7.59L27.45 7.59Q27.55 7.50 27.79 7.36L27.79 7.36L28.27 7.08L28.27 7.08Q28.87 6.72 29.67 6.72L29.67 6.72L29.67 6.72Q30.31 6.72 31.15 6.92L31.15 6.92L31.15 6.92Q31.15 6.38 31.14 5.69L31.14 5.69L31.14 5.69Q31.12 5.00 31.12 4.82L31.12 4.82L31.12 4.82Q31.12 4.37 31.12 4.19L31.12 4.19L31.12 4.19Q31.11 4.02 30.98 3.89L30.98 3.89L30.98 3.89Q30.84 3.77 30.71 3.76L30.71 3.76L30.71 3.76Q30.58 3.75 30.14 3.74L30.14 3.74L30.11 3.28L30.11 3.28Q30.72 3.22 31.21 3.14L31.21 3.14L31.21 3.14Q31.71 3.05 31.95 3.00L31.95 3.00L31.95 3.00Q32.19 2.94 32.23 2.94L32.23 2.94L32.23 2.94Q32.47 2.94 32.47 3.16L32.47 3.16L32.47 3.16Q32.47 6.17 32.42 8.94L32.42 8.94L32.42 8.94Q32.37 11.70 32.37 12.31L32.37 12.31L32.37 12.31Q32.37 12.67 32.73 13.20L32.73 13.20L32.73 13.20Q33.08 13.73 33.08 13.75L33.08 13.75L33.08 13.75Q33.08 13.79 32.96 13.84L32.96 13.84L32.96 13.84Q32.84 13.89 32.66 13.94L32.66 13.94L32.66 13.94Q32.48 14 32.45 14.01L32.45 14.01L32.45 14.01Q31.91 14.25 31.79 14.25L31.79 14.25L31.79 14.25Q31.68 14.25 31.57 14.02L31.57 14.02L31.57 14.02Q31.46 13.79 31.35 13.51L31.35 13.51L31.35 13.51Q31.25 13.23 31.18 13.16L31.18 13.16L31.18 13.16Q30.13 14.32 29.32 14.32L29.32 14.32L29.32 14.32Q29.01 14.32 28.58 14.13L28.58 14.13L28.58 14.13Q28.15 13.94 27.69 13.56L27.69 13.56L27.69 13.56Q27.22 13.17 26.89 12.43L26.89 12.43L26.89 12.43Q26.57 11.69 26.57 10.72ZM27.80 10.19L27.80 10.19L27.80 10.19Q27.80 11.65 28.36 12.38L28.36 12.38L28.36 12.38Q28.91 13.12 29.72 13.12L29.72 13.12L29.72 13.12Q30.51 13.12 31.16 12.49L31.16 12.49L31.16 12.49Q31.16 10.04 31.14 9.01L31.14 9.01L31.14 9.01Q31.12 7.98 31.12 7.92L31.12 7.92L31.12 7.92Q30.46 7.53 29.47 7.53L29.47 7.53L29.47 7.53Q29.05 7.53 28.79 7.61L28.79 7.61L28.79 7.61Q28.53 7.69 28.28 7.95L28.28 7.95L28.28 7.95Q28.03 8.20 27.92 8.76L27.92 8.76L27.92 8.76Q27.80 9.31 27.80 10.19ZM33.95 10.47L33.95 10.47L33.95 10.47Q33.95 9.24 34.52 8.30L34.52 8.30L34.52 8.30Q34.90 7.71 35.84 7.23L35.84 7.23L35.84 7.23Q36.78 6.75 37.39 6.75L37.39 6.75L37.39 6.75Q38.64 6.75 39.52 7.55L39.52 7.55L39.52 7.55Q40.40 8.34 40.40 10.00L40.40 10.00L40.40 10.00Q40.40 11.72 39.79 12.66L39.79 12.66L39.79 12.66Q38.96 13.76 38.18 14.11L38.18 14.11L38.18 14.11Q37.65 14.35 36.90 14.35L36.90 14.35L36.90 14.35Q36.50 14.35 36.13 14.27L36.13 14.27L36.13 14.27Q35.77 14.20 35.36 13.94L35.36 13.94L35.36 13.94Q34.94 13.69 34.64 13.29L34.64 13.29L34.64 13.29Q34.34 12.88 34.15 12.16L34.15 12.16L34.15 12.16Q33.95 11.44 33.95 10.47ZM35.28 10.36L35.28 10.36L35.28 10.36Q35.28 12.04 35.86 12.70L35.86 12.70L35.86 12.70Q36.44 13.36 37.55 13.36L37.55 13.36L37.55 13.36Q37.97 13.36 38.16 13.29L38.16 13.29L38.16 13.29Q39.13 12.91 39.13 10.37L39.13 10.37L39.13 10.37Q39.13 9.18 38.81 8.63L38.81 8.63L38.81 8.63Q38.50 8.08 37.73 7.84L37.73 7.84L37.73 7.84Q37.34 7.74 36.97 7.74L36.97 7.74L36.97 7.74Q36.69 7.74 36.55 7.76L36.55 7.76L36.55 7.76Q36.40 7.77 36.16 7.84L36.16 7.84L36.16 7.84Q35.92 7.91 35.80 8.07L35.80 8.07L35.80 8.07Q35.67 8.23 35.53 8.51L35.53 8.51L35.53 8.51Q35.39 8.79 35.34 9.26L35.34 9.26L35.34 9.26Q35.28 9.73 35.28 10.36ZM45.04 14.11L41.12 14.11L41.12 13.64L41.12 13.64Q41.45 13.59 41.57 13.59L41.57 13.59L41.57 13.59Q41.68 13.58 41.85 13.50L41.85 13.50L41.85 13.50Q42.03 13.43 42.06 13.36L42.06 13.36L42.06 13.36Q42.08 13.30 42.14 13.09L42.14 13.09L42.14 13.09Q42.20 12.88 42.20 12.67L42.20 12.67L42.20 12.67Q42.20 12.46 42.20 12.03L42.20 12.03L42.20 11.56L42.20 11.56Q42.20 8.75 42.10 8.26L42.10 8.26L42.10 8.26Q42 7.77 41.43 7.73L41.43 7.73L41.43 7.73Q41.34 7.71 41.29 7.71L41.29 7.71L41.26 7.18L41.26 7.18Q41.82 7.13 42.41 6.92L42.41 6.92L42.41 6.92Q42.99 6.71 43.15 6.71L43.15 6.71L43.15 6.71Q43.33 6.71 43.40 6.87L43.40 6.87L43.40 6.87Q43.47 7.03 43.47 7.45L43.47 7.45L43.48 7.98L43.48 7.98Q44.72 6.79 45.43 6.79L45.43 6.79L45.43 6.79Q45.95 6.79 46.14 6.92L46.14 6.92L46.14 6.92Q46.34 7.04 46.34 7.38L46.34 7.38L46.34 7.38Q46.34 7.49 46.12 8.89L46.12 8.89L45.61 8.89L45.61 8.89Q45.54 7.84 44.90 7.84L44.90 7.84L44.90 7.84Q44.53 7.84 44.01 8.17L44.01 8.17L44.01 8.17Q43.48 8.50 43.48 9.04L43.48 9.04L43.48 9.04Q43.48 9.44 43.48 11.01L43.48 11.01L43.48 11.01Q43.47 12.59 43.47 12.84L43.47 12.84L43.47 12.84Q43.47 13.27 43.72 13.40L43.72 13.40L43.72 13.40Q43.97 13.54 44.90 13.66L44.90 13.66L44.90 13.66Q45.00 13.68 45.04 13.68L45.04 13.68L45.04 14.11ZM47.22 12.94L47.22 12.94L47.22 12.94Q47.22 12.77 47.47 12.40L47.47 12.40L47.47 12.40Q47.71 12.04 47.95 12.04L47.95 12.04L47.95 12.04Q48.19 12.04 48.50 12.56L48.50 12.56L48.50 12.56Q48.82 13.08 48.82 13.27L48.82 13.27L48.82 13.27Q48.82 13.50 48.48 13.87L48.48 13.87L48.48 13.87Q48.13 14.25 47.89 14.25L47.89 14.25L47.89 14.25Q47.70 14.25 47.46 13.67L47.46 13.67L47.46 13.67Q47.22 13.09 47.22 12.94ZM50.12 10.72L50.12 10.72L50.12 10.72Q50.12 9.95 50.20 9.38L50.20 9.38L50.20 9.38Q50.29 8.81 50.39 8.49L50.39 8.49L50.39 8.49Q50.48 8.18 50.69 7.92L50.69 7.92L50.69 7.92Q50.89 7.67 51.00 7.59L51.00 7.59L51.00 7.59Q51.10 7.50 51.34 7.36L51.34 7.36L51.81 7.08L51.81 7.08Q52.42 6.72 53.21 6.72L53.21 6.72L53.21 6.72Q53.86 6.72 54.70 6.92L54.70 6.92L54.70 6.92Q54.70 6.38 54.68 5.69L54.68 5.69L54.68 5.69Q54.67 5.00 54.67 4.82L54.67 4.82L54.67 4.82Q54.67 4.37 54.66 4.19L54.66 4.19L54.66 4.19Q54.66 4.02 54.52 3.89L54.52 3.89L54.52 3.89Q54.39 3.77 54.26 3.76L54.26 3.76L54.26 3.76Q54.12 3.75 53.69 3.74L53.69 3.74L53.66 3.28L53.66 3.28Q54.26 3.22 54.76 3.14L54.76 3.14L54.76 3.14Q55.26 3.05 55.50 3.00L55.50 3.00L55.50 3.00Q55.73 2.94 55.78 2.94L55.78 2.94L55.78 2.94Q56.01 2.94 56.01 3.16L56.01 3.16L56.01 3.16Q56.01 6.17 55.97 8.94L55.97 8.94L55.97 8.94Q55.92 11.70 55.92 12.31L55.92 12.31L55.92 12.31Q55.92 12.67 56.27 13.20L56.27 13.20L56.27 13.20Q56.63 13.73 56.63 13.75L56.63 13.75L56.63 13.75Q56.63 13.79 56.51 13.84L56.51 13.84L56.51 13.84Q56.39 13.89 56.21 13.94L56.21 13.94L56.21 13.94Q56.03 14 56 14.01L56 14.01L56 14.01Q55.45 14.25 55.34 14.25L55.34 14.25L55.34 14.25Q55.23 14.25 55.12 14.02L55.12 14.02L55.12 14.02Q55.01 13.79 54.90 13.51L54.90 13.51L54.90 13.51Q54.80 13.23 54.73 13.16L54.73 13.16L54.73 13.16Q53.68 14.32 52.86 14.32L52.86 14.32L52.86 14.32Q52.56 14.32 52.13 14.13L52.13 14.13L52.13 14.13Q51.70 13.94 51.23 13.56L51.23 13.56L51.23 13.56Q50.76 13.17 50.44 12.43L50.44 12.43L50.44 12.43Q50.12 11.69 50.12 10.72ZM51.35 10.19L51.35 10.19L51.35 10.19Q51.35 11.65 51.91 12.38L51.91 12.38L51.91 12.38Q52.46 13.12 53.27 13.12L53.27 13.12L53.27 13.12Q54.05 13.12 54.71 12.49L54.71 12.49L54.71 12.49Q54.71 10.04 54.69 9.01L54.69 9.01L54.69 9.01Q54.67 7.98 54.67 7.92L54.67 7.92L54.67 7.92Q54.01 7.53 53.02 7.53L53.02 7.53L53.02 7.53Q52.60 7.53 52.34 7.61L52.34 7.61L52.34 7.61Q52.08 7.69 51.83 7.95L51.83 7.95L51.83 7.95Q51.58 8.20 51.46 8.76L51.46 8.76L51.46 8.76Q51.35 9.31 51.35 10.19ZM57.50 10.67L57.50 10.67L57.50 10.67Q57.50 9.25 57.81 8.53L57.81 8.53L57.81 8.53Q58.03 8.01 58.88 7.40L58.88 7.40L58.88 7.40Q59.74 6.79 60.48 6.79L60.48 6.79L60.48 6.79Q61.12 6.79 61.61 6.94L61.61 6.94L61.61 6.94Q62.10 7.10 62.38 7.40L62.38 7.40L62.38 7.40Q62.66 7.70 62.84 7.99L62.84 7.99L62.84 7.99Q63.01 8.27 63.08 8.70L63.08 8.70L63.08 8.70Q63.14 9.13 63.16 9.38L63.16 9.38L63.16 9.38Q63.18 9.63 63.18 10.00L63.18 10.00L63.18 10.00Q63.18 10.12 63.18 10.18L63.18 10.18L63.18 10.18Q62.73 10.46 61.71 10.46L61.71 10.46L58.84 10.46L58.84 10.46Q58.84 10.91 58.86 11.15L58.86 11.15L58.86 11.15Q58.87 11.40 58.91 11.78L58.91 11.78L58.91 11.78Q58.95 12.17 59.07 12.38L59.07 12.38L59.07 12.38Q59.19 12.60 59.39 12.82L59.39 12.82L59.39 12.82Q59.58 13.05 59.91 13.15L59.91 13.15L59.91 13.15Q60.23 13.24 60.66 13.24L60.66 13.24L60.66 13.24Q61.88 13.24 62.89 12.25L62.89 12.25L63.20 12.57L63.20 12.57Q63.14 12.63 62.93 12.85L62.93 12.85L62.93 12.85Q62.72 13.06 62.65 13.13L62.65 13.13L62.65 13.13Q62.58 13.20 62.38 13.39L62.38 13.39L62.38 13.39Q62.19 13.58 62.08 13.65L62.08 13.65L62.08 13.65Q61.98 13.72 61.79 13.86L61.79 13.86L61.79 13.86Q61.60 14 61.47 14.06L61.47 14.06L61.47 14.06Q61.33 14.11 61.15 14.19L61.15 14.19L61.15 14.19Q60.96 14.27 60.77 14.29L60.77 14.29L60.77 14.29Q60.58 14.32 60.38 14.32L60.38 14.32L60.38 14.32Q59.54 14.32 58.95 13.99L58.95 13.99L58.95 13.99Q58.35 13.66 58.05 13.10L58.05 13.10L58.05 13.10Q57.75 12.54 57.62 11.95L57.62 11.95L57.62 11.95Q57.50 11.35 57.50 10.67ZM58.87 9.83L58.87 9.83L59.67 9.83L59.67 9.83Q61.53 9.83 61.88 9.58L61.88 9.58L61.88 9.58Q61.88 9.28 61.82 9.00L61.82 9.00L61.82 9.00Q61.77 8.72 61.63 8.41L61.63 8.41L61.63 8.41Q61.49 8.09 61.18 7.90L61.18 7.90L61.18 7.90Q60.87 7.70 60.42 7.70L60.42 7.70L60.42 7.70Q59.47 7.70 59.17 8.17L59.17 8.17L59.17 8.17Q58.87 8.64 58.87 9.83ZM63.64 7.56L63.62 7.10L63.62 7.10Q64.16 7.03 64.63 6.93L64.63 6.93L64.63 6.93Q65.10 6.83 65.33 6.77L65.33 6.77L65.33 6.77Q65.56 6.71 65.62 6.71L65.62 6.71L65.62 6.71Q65.86 6.71 65.86 6.92L65.86 6.92L65.86 6.92Q65.86 7.11 66.22 8.55L66.22 8.55L66.22 8.55Q66.58 9.98 66.95 11.31L66.95 11.31L67.33 12.64L67.33 12.64Q68.81 8.72 68.81 7.87L68.81 7.87L68.81 7.87Q68.81 7.66 68.73 7.57L68.73 7.57L68.73 7.57Q68.66 7.49 68.56 7.49L68.56 7.49L68.56 7.49Q68.46 7.49 68.38 7.43L68.38 7.43L68.38 7.43Q68.31 7.36 68.31 7.21L68.31 7.21L68.31 7.21Q68.31 6.96 68.78 6.96L68.78 6.96L68.78 6.96Q68.91 6.96 69.11 6.97L69.11 6.97L69.11 6.97Q69.31 6.99 69.38 6.99L69.38 6.99L69.38 6.99Q69.62 6.99 69.92 6.96L69.92 6.96L69.92 6.96Q70.21 6.93 70.31 6.93L70.31 6.93L70.31 6.93Q70.50 6.93 70.50 7.14L70.50 7.14L70.50 7.14Q70.50 7.18 70.48 7.22L70.48 7.22L70.48 7.22Q70.46 7.25 70.41 7.34L70.41 7.34L70.41 7.34Q70.36 7.42 70.29 7.54L70.29 7.54L70.29 7.54Q70.21 7.66 70.08 7.92L70.08 7.92L70.08 7.92Q69.94 8.18 69.78 8.52L69.78 8.52L69.78 8.52Q69.61 8.86 69.36 9.44L69.36 9.44L69.36 9.44Q69.10 10.02 68.82 10.74L68.82 10.74L68.82 10.74Q68.61 11.24 68.42 11.73L68.42 11.73L68.42 11.73Q68.24 12.22 68.12 12.53L68.12 12.53L68.12 12.53Q68.01 12.84 67.90 13.14L67.90 13.14L67.90 13.14Q67.79 13.44 67.72 13.60L67.72 13.60L67.72 13.60Q67.66 13.76 67.58 13.92L67.58 13.92L67.58 13.92Q67.51 14.07 67.47 14.13L67.47 14.13L67.47 14.13Q67.42 14.20 67.34 14.25L67.34 14.25L67.34 14.25Q67.26 14.29 67.19 14.31L67.19 14.31L67.19 14.31Q67.12 14.32 66.99 14.32L66.99 14.32L66.99 14.32Q66.67 14.32 66.53 14.08L66.53 14.08L66.53 14.08Q66.40 13.83 66.08 12.74L66.08 12.74L66.08 12.74Q65.91 12.17 65.80 11.80L65.80 11.80L65.80 11.80Q65.67 11.40 65.46 10.62L65.46 10.62L65.46 10.62Q65.24 9.84 65.11 9.39L65.11 9.39L65.11 9.39Q64.97 8.93 64.78 8.46L64.78 8.46L64.78 8.46Q64.60 7.99 64.44 7.81L64.44 7.81L64.44 7.81Q64.39 7.74 64.32 7.70L64.32 7.70L64.32 7.70Q64.26 7.66 64.17 7.63L64.17 7.63L64.17 7.63Q64.08 7.60 64.03 7.59L64.03 7.59L64.03 7.59Q63.98 7.59 63.84 7.58L63.84 7.58L63.84 7.58Q63.70 7.57 63.64 7.56L63.64 7.56Z"></path></g><!----><!----></svg>